<svg width="655" height="640" viewBox="0 0 655 640" fill="none" xmlns="http://www.w3.org/2000/svg">
<g clip-path="url(#clip0_215_82)">
<path d="M263.098 507.231H254.579C253.901 507.232 253.24 507.024 252.688 506.635C252.135 506.246 251.717 505.696 251.493 505.061C250.841 503.201 250.069 501.384 249.183 499.622C248.878 499.012 248.773 498.322 248.884 497.65C248.996 496.977 249.318 496.357 249.804 495.877L255.86 489.861C256.475 489.249 256.82 488.42 256.82 487.555C256.82 486.69 256.475 485.86 255.86 485.248L242.778 472.26C242.162 471.648 241.327 471.305 240.456 471.305C239.586 471.305 238.751 471.648 238.135 472.26L231.971 478.385C231.491 478.863 230.873 479.181 230.203 479.293C229.532 479.406 228.843 479.307 228.232 479.012C226.492 478.168 224.699 477.434 222.866 476.814C222.22 476.596 221.659 476.181 221.262 475.63C220.865 475.078 220.653 474.416 220.654 473.738V465.062C220.654 464.634 220.569 464.21 220.404 463.814C220.24 463.419 219.998 463.059 219.693 462.757C219.389 462.454 219.027 462.214 218.629 462.05C218.231 461.886 217.804 461.802 217.373 461.802H198.878C198.447 461.802 198.021 461.886 197.623 462.05C197.225 462.214 196.863 462.454 196.558 462.757C196.254 463.059 196.012 463.419 195.847 463.814C195.682 464.21 195.598 464.634 195.598 465.062V473.738C195.599 474.416 195.387 475.078 194.99 475.63C194.593 476.181 194.033 476.596 193.387 476.814C191.553 477.434 189.761 478.168 188.02 479.012C187.409 479.307 186.72 479.406 186.05 479.293C185.379 479.181 184.761 478.863 184.281 478.385L178.116 472.26C177.501 471.648 176.666 471.305 175.795 471.305C174.925 471.305 174.09 471.648 173.474 472.26L160.393 485.251C159.777 485.863 159.432 486.692 159.432 487.557C159.432 488.422 159.777 489.252 160.393 489.863L166.448 495.879C166.934 496.359 167.256 496.98 167.368 497.652C167.479 498.324 167.374 499.014 167.068 499.624C166.182 501.386 165.412 503.203 164.764 505.064C164.538 505.699 164.12 506.248 163.566 506.637C163.013 507.025 162.352 507.234 161.674 507.233H153.153C152.722 507.233 152.295 507.318 151.897 507.481C151.499 507.645 151.137 507.885 150.833 508.188C150.528 508.49 150.286 508.85 150.122 509.245C149.957 509.641 149.872 510.065 149.872 510.493V528.872C149.872 529.301 149.957 529.724 150.122 530.12C150.286 530.515 150.528 530.875 150.833 531.177C151.137 531.48 151.499 531.72 151.897 531.884C152.295 532.048 152.722 532.132 153.153 532.132H161.451C162.141 532.131 162.814 532.347 163.373 532.749C163.932 533.151 164.349 533.718 164.565 534.369C165.205 536.28 165.971 538.146 166.857 539.957C167.158 540.567 167.26 541.255 167.149 541.926C167.038 542.596 166.719 543.215 166.237 543.696L160.394 549.502C160.09 549.804 159.848 550.163 159.683 550.558C159.518 550.953 159.433 551.377 159.433 551.805C159.433 552.233 159.518 552.656 159.683 553.051C159.848 553.446 160.09 553.805 160.394 554.108L173.476 567.105C174.091 567.717 174.926 568.06 175.797 568.06C176.667 568.06 177.502 567.717 178.118 567.105L183.846 561.414C184.334 560.931 184.963 560.612 185.643 560.504C186.324 560.395 187.021 560.502 187.637 560.81C189.49 561.729 191.404 562.523 193.366 563.184C194.016 563.402 194.581 563.818 194.982 564.371C195.383 564.925 195.599 565.59 195.6 566.272V574.298C195.6 574.726 195.684 575.151 195.849 575.547C196.013 575.943 196.255 576.302 196.56 576.606C196.864 576.909 197.226 577.149 197.624 577.313C198.023 577.478 198.45 577.562 198.881 577.562H217.373C217.805 577.562 218.232 577.478 218.63 577.314C219.028 577.15 219.39 576.909 219.695 576.606C219.999 576.303 220.241 575.943 220.406 575.547C220.57 575.151 220.654 574.726 220.654 574.298V566.272C220.655 565.59 220.871 564.925 221.272 564.371C221.673 563.818 222.238 563.402 222.888 563.184C224.85 562.523 226.764 561.729 228.617 560.81C229.233 560.502 229.93 560.395 230.611 560.504C231.291 560.612 231.92 560.931 232.408 561.414L238.136 567.105C238.752 567.717 239.587 568.06 240.457 568.06C241.328 568.06 242.163 567.717 242.778 567.105L255.861 554.108C256.165 553.805 256.407 553.446 256.571 553.051C256.736 552.656 256.821 552.232 256.821 551.805C256.821 551.377 256.736 550.954 256.571 550.558C256.407 550.163 256.165 549.804 255.861 549.502L250.018 543.696C249.535 543.215 249.217 542.596 249.105 541.926C248.994 541.255 249.096 540.567 249.397 539.957C250.283 538.147 251.049 536.28 251.689 534.369C251.905 533.718 252.322 533.151 252.881 532.749C253.44 532.347 254.113 532.131 254.803 532.132H263.099C263.53 532.132 263.956 532.048 264.355 531.884C264.753 531.72 265.114 531.48 265.419 531.177C265.724 530.875 265.965 530.515 266.13 530.12C266.295 529.724 266.38 529.301 266.38 528.872V510.493C266.38 510.064 266.295 509.64 266.131 509.244C265.966 508.849 265.724 508.489 265.419 508.186C265.115 507.883 264.753 507.643 264.355 507.479C263.956 507.315 263.529 507.231 263.098 507.231ZM208.128 546.842C202.721 546.842 197.436 545.249 192.94 542.264C188.444 539.28 184.941 535.038 182.871 530.075C180.802 525.112 180.261 519.65 181.316 514.382C182.371 509.113 184.974 504.273 188.798 500.475C192.621 496.676 197.492 494.089 202.795 493.041C208.098 491.993 213.595 492.531 218.59 494.587C223.585 496.643 227.855 500.124 230.859 504.591C233.863 509.057 235.466 514.309 235.466 519.681C235.466 526.884 232.586 533.793 227.459 538.887C222.332 543.98 215.379 546.842 208.128 546.842Z" fill="#F4F4F4"/>
<path d="M156.688 397.739H145.089C144.167 397.74 143.268 397.457 142.515 396.927C141.763 396.398 141.194 395.65 140.889 394.786C140.001 392.253 138.951 389.779 137.745 387.379C137.328 386.549 137.185 385.61 137.337 384.695C137.488 383.78 137.927 382.935 138.589 382.281L146.833 374.091C147.671 373.258 148.141 372.129 148.141 370.951C148.141 369.774 147.671 368.645 146.833 367.812L129.023 350.125C128.185 349.293 127.048 348.825 125.863 348.825C124.678 348.825 123.541 349.293 122.703 350.125L114.31 358.463C113.657 359.115 112.815 359.547 111.902 359.701C110.989 359.854 110.051 359.72 109.218 359.317C106.85 358.168 104.41 357.168 101.914 356.326C101.034 356.028 100.271 355.464 99.7304 354.712C99.1903 353.961 98.9007 353.061 98.9024 352.137V340.325C98.9025 339.742 98.7871 339.165 98.5626 338.627C98.3382 338.088 98.0092 337.599 97.5945 337.187C97.1797 336.775 96.6873 336.448 96.1454 336.225C95.6035 336.002 95.0227 335.888 94.4361 335.888H69.2587C68.6721 335.888 68.0913 336.002 67.5494 336.225C67.0075 336.448 66.5151 336.775 66.1003 337.187C65.6855 337.599 65.3566 338.088 65.1322 338.627C64.9077 339.165 64.7923 339.742 64.7924 340.325V352.137C64.7941 353.061 64.5045 353.961 63.9644 354.712C63.4242 355.464 62.6607 356.028 61.7811 356.326C59.2848 357.169 56.8447 358.168 54.4755 359.317C53.6428 359.72 52.7044 359.854 51.7913 359.701C50.8782 359.548 50.0361 359.115 49.3827 358.463L40.9902 350.125C40.1518 349.293 39.0152 348.825 37.8301 348.825C36.6451 348.825 35.5085 349.293 34.6701 350.125L16.8606 367.812C16.023 368.645 15.5526 369.774 15.5526 370.951C15.5526 372.129 16.023 373.258 16.8606 374.091L25.1043 382.281C25.7668 382.935 26.205 383.779 26.3567 384.695C26.5084 385.61 26.3659 386.549 25.9494 387.379C24.7428 389.778 23.6949 392.252 22.8126 394.786C22.5046 395.65 21.9346 396.398 21.181 396.927C20.4274 397.455 19.5274 397.739 18.6047 397.739H7.00566C6.41911 397.738 5.83826 397.853 5.29629 398.076C4.75432 398.299 4.26187 398.625 3.84708 399.037C3.43229 399.449 3.1033 399.939 2.87892 400.477C2.65453 401.015 2.53915 401.593 2.53937 402.175V427.198C2.53904 427.781 2.65434 428.358 2.87868 428.897C3.10301 429.435 3.43199 429.925 3.84678 430.337C4.26158 430.749 4.75407 431.076 5.2961 431.299C5.83812 431.522 6.41904 431.636 7.00566 431.636H18.2998C19.2391 431.635 20.1545 431.93 20.9155 432.477C21.6765 433.024 22.2442 433.796 22.5375 434.682C23.4088 437.284 24.4514 439.825 25.6586 442.291C26.068 443.121 26.2066 444.057 26.0552 444.97C25.9037 445.882 25.4697 446.725 24.8135 447.38L16.8589 455.283C16.4439 455.695 16.1146 456.184 15.8899 456.723C15.6653 457.261 15.5496 457.838 15.5496 458.421C15.5496 459.003 15.6653 459.58 15.8899 460.119C16.1146 460.657 16.4439 461.146 16.8589 461.558L34.6684 479.252C35.5068 480.084 36.6434 480.552 37.8285 480.552C39.0135 480.552 40.1501 480.084 40.9885 479.252L48.7869 471.504C49.4513 470.846 50.3074 470.411 51.234 470.263C52.1606 470.115 53.1107 470.26 53.9495 470.679C56.472 471.931 59.0775 473.011 61.7478 473.911C62.6331 474.209 63.4025 474.774 63.948 475.528C64.4935 476.282 64.7879 477.187 64.7899 478.115V489.042C64.789 489.625 64.9039 490.203 65.128 490.742C65.352 491.281 65.6808 491.771 66.0956 492.184C66.5105 492.597 67.0031 492.925 67.5454 493.148C68.0877 493.372 68.6691 493.487 69.2562 493.487H94.4336C95.0207 493.487 95.6021 493.372 96.1444 493.148C96.6867 492.925 97.1793 492.597 97.5942 492.184C98.009 491.771 98.3378 491.281 98.5619 490.742C98.7859 490.203 98.9008 489.625 98.8999 489.042V478.115C98.9016 477.187 99.1959 476.282 99.7415 475.528C100.287 474.774 101.057 474.208 101.942 473.911C104.612 473.011 107.218 471.931 109.74 470.679C110.579 470.26 111.529 470.115 112.456 470.263C113.382 470.411 114.239 470.846 114.903 471.504L122.7 479.252C123.539 480.084 124.675 480.552 125.861 480.552C127.046 480.552 128.182 480.084 129.021 479.252L146.831 461.558C147.246 461.146 147.575 460.657 147.8 460.119C148.025 459.58 148.14 459.003 148.14 458.421C148.14 457.838 148.025 457.261 147.8 456.723C147.575 456.184 147.246 455.695 146.831 455.283L138.876 447.38C138.22 446.725 137.786 445.882 137.635 444.97C137.483 444.057 137.622 443.121 138.031 442.291C139.238 439.825 140.281 437.283 141.152 434.682C141.446 433.796 142.013 433.024 142.774 432.477C143.535 431.93 144.451 431.635 145.39 431.636H156.684C157.271 431.636 157.852 431.522 158.394 431.299C158.936 431.076 159.428 430.749 159.843 430.337C160.258 429.925 160.587 429.435 160.811 428.897C161.035 428.358 161.151 427.781 161.15 427.198V402.175C161.151 401.593 161.035 401.016 160.811 400.478C160.587 399.94 160.259 399.451 159.844 399.039C159.43 398.627 158.938 398.3 158.396 398.077C157.855 397.854 157.274 397.739 156.688 397.739V397.739ZM81.8474 451.662C74.486 451.663 67.2899 449.494 61.1691 445.431C55.0483 441.367 50.2777 435.592 47.4605 428.835C44.6434 422.078 43.9062 414.643 45.3423 407.469C46.7784 400.296 50.3232 393.707 55.5285 388.535C60.7338 383.364 67.3657 379.842 74.5856 378.415C81.8056 376.988 89.2892 377.721 96.0902 380.52C102.891 383.318 108.704 388.058 112.794 394.14C116.883 400.221 119.066 407.37 119.066 414.684C119.065 424.491 115.144 433.897 108.164 440.831C101.185 447.766 91.7182 451.662 81.8474 451.662V451.662Z" fill="#F4F4F4"/>
<path d="M90.658 473.007L89.2233 473.163L106.938 633.996L108.372 633.84L90.658 473.007Z" fill="#292A2E"/>
<path d="M136.538 543.222L127.823 628.878L129.259 629.023L137.974 543.366L136.538 543.222Z" fill="#292A2E"/>
<path d="M151.524 618.524H86.8604V639.373H151.524V618.524Z" fill="#292A2E"/>
<path opacity="0.2" d="M151.524 618.524H86.8604V639.373H151.524V618.524Z" fill="white"/>
<path d="M190.507 580.134C202.757 563.958 196.917 539.056 177.464 524.514C158.011 509.972 132.311 511.296 120.061 527.472C107.812 543.648 113.651 568.549 133.104 583.091C152.557 597.633 178.258 596.309 190.507 580.134Z" fill="#0CBC8B"/>
<path opacity="0.2" d="M190.507 580.134C202.757 563.958 196.917 539.056 177.464 524.514C158.011 509.972 132.311 511.296 120.061 527.472C107.812 543.648 113.651 568.549 133.104 583.091C152.557 597.633 178.258 596.309 190.507 580.134Z" fill="white"/>
<path opacity="0.5" d="M190.504 580.136C189.681 581.227 188.784 582.261 187.818 583.229C174.333 591.788 154.43 590.44 138.64 578.635C119.189 564.095 113.351 539.195 125.602 523.019C126.425 521.93 127.321 520.897 128.282 519.927C141.773 511.36 161.67 512.714 177.466 524.514C196.916 539.059 202.755 563.961 190.504 580.136Z" fill="white"/>
<path d="M100.262 518.764C119.533 503.985 124.771 478.637 111.961 462.149C99.1509 445.661 73.1441 444.276 53.8731 459.056C34.6021 473.835 29.3644 499.183 42.1744 515.67C54.9844 532.158 80.9912 533.543 100.262 518.764Z" fill="#0CBC8B"/>
<path opacity="0.2" d="M94.1585 514.524C79.234 525.977 60.2671 527.723 46.5184 520.267C44.9273 518.874 43.474 517.334 42.1784 515.666C29.3661 499.183 34.6035 473.833 53.8738 459.056C68.7983 447.609 87.7653 445.857 101.507 453.307C103.102 454.7 104.557 456.243 105.853 457.914C118.666 474.397 113.429 499.747 94.1585 514.524Z" fill="white"/>
<path d="M610.668 366.569H393.803C388.643 366.569 384.461 370.725 384.461 375.851V482.763C384.461 487.89 388.643 492.045 393.803 492.045H610.668C615.827 492.045 620.01 487.89 620.01 482.763V375.851C620.01 370.725 615.827 366.569 610.668 366.569Z" fill="#F4F4F4"/>
<path d="M527.868 437.819H512.834C511.918 437.819 511.176 438.557 511.176 439.466V472.575C511.176 473.485 511.918 474.222 512.834 474.222H527.868C528.784 474.222 529.526 473.485 529.526 472.575V439.466C529.526 438.557 528.784 437.819 527.868 437.819Z" fill="white"/>
<path d="M564.1 403.071H549.066C548.151 403.071 547.408 403.808 547.408 404.718V472.575C547.408 473.485 548.151 474.222 549.066 474.222H564.1C565.016 474.222 565.758 473.485 565.758 472.575V404.718C565.758 403.808 565.016 403.071 564.1 403.071Z" fill="white"/>
<path d="M600.333 429.659H585.298C584.383 429.659 583.641 430.397 583.641 431.306V472.575C583.641 473.485 584.383 474.222 585.298 474.222H600.333C601.248 474.222 601.99 473.485 601.99 472.575V431.306C601.99 430.397 601.248 429.659 600.333 429.659Z" fill="white"/>
<path d="M419.172 437.819H404.138C403.223 437.819 402.48 438.557 402.48 439.466V472.575C402.48 473.485 403.223 474.222 404.138 474.222H419.172C420.088 474.222 420.83 473.485 420.83 472.575V439.466C420.83 438.557 420.088 437.819 419.172 437.819Z" fill="white"/>
<path d="M455.404 403.071H440.37C439.455 403.071 438.713 403.808 438.713 404.718V472.575C438.713 473.485 439.455 474.222 440.37 474.222H455.404C456.32 474.222 457.062 473.485 457.062 472.575V404.718C457.062 403.808 456.32 403.071 455.404 403.071Z" fill="white"/>
<path d="M491.637 429.659H476.603C475.687 429.659 474.945 430.397 474.945 431.306V472.575C474.945 473.485 475.687 474.222 476.603 474.222H491.637C492.552 474.222 493.295 473.485 493.295 472.575V431.306C493.295 430.397 492.552 429.659 491.637 429.659Z" fill="white"/>
<path d="M519.565 44.2092C519.565 44.2092 510.966 36.8138 509.78 21.028C508.859 8.80959 519.57 17.3955 519.57 17.3955C519.57 17.3955 518.993 8.58833 525.333 9.88283C531.673 11.1773 534.64 20.5839 534.64 20.5839" fill="#0C0C0C"/>
<path d="M558.348 13.1077C558.348 13.1077 589.881 18.6051 575.515 60.6019H566.961" fill="#0C0C0C"/>
<path d="M579.183 602.508C579.183 602.508 575.431 621.827 557.223 622.907C539.014 623.988 542.962 638.396 542.962 638.396H612.544V603.856L579.183 602.508Z" fill="#E74C3C"/>
<path d="M617.264 250.047C617.264 250.047 617.045 244.239 617.091 257.415C617.264 306.56 615.615 614.84 615.615 614.84L569.893 614.459L542.195 248.05L617.264 250.047Z" fill="#262626"/>
<path d="M501.106 602.508C501.106 602.508 497.354 621.827 479.146 622.907C460.938 623.988 464.886 638.396 464.886 638.396H534.468V603.856L501.106 602.508Z" fill="#E74C3C"/>
<path d="M492.263 253.863C492.263 253.863 486.551 421.831 487.145 430.04L492.515 613.564L537.483 614.39L544.734 423.399C544.734 423.399 549.487 370.715 562.299 321.794C568.854 296.685 572.799 270.975 574.072 245.067V245.067L492.263 253.863Z" fill="#262626"/>
<path d="M551.586 372.953L547.837 315.981C547.837 315.981 543.986 339.666 543.986 360.08C543.986 370.059 546.054 409.567 546.054 409.567L551.586 372.953Z" fill="#0A0A0A"/>
<path d="M522.833 104.263C522.974 104.245 524.527 129.848 554.464 127.616C575.189 126.074 582.58 104.227 583.054 104.227C580.82 103.755 578.058 103.039 576.961 102.793C574.569 102.242 572.403 100.98 570.75 99.1751C569.098 97.3705 568.038 95.1088 567.711 92.691C567.105 89.0584 568.133 70.4946 567.816 66.8225L536.003 73.8778C536.448 81.6324 539.559 99.6109 528.654 102.793C526.839 103.319 524.885 103.803 522.833 104.263Z" fill="#E98862"/>
<path opacity="0.52" d="M535.557 95.4459C536.055 93.8502 536.376 92.2049 536.514 90.5396C536.864 86.7403 536.794 82.9144 536.306 79.1302C542.772 78.2629 548.864 75.6112 553.889 71.4763C554.48 73.6443 557.729 83.1169 556.829 85.175C555.129 89.0692 547.138 95.4459 535.557 95.4459Z" fill="#0C0C0C"/>
<path d="M541.204 89.26C553.802 88.9777 569.32 82.1139 570.676 65.24L571.899 50.014C573.254 33.1393 565.432 18.7529 549.44 17.4865C533.449 16.2184 520.397 28.9504 519.042 45.825L518.5 52.5658C518.355 54.8834 518.369 57.2081 518.542 59.5237C518.957 65.6478 519.604 74.9619 523.329 81.4782C526.846 87.6303 533.155 89.44 541.204 89.26Z" fill="#E98862"/>
<path opacity="0.52" d="M536.434 73.4354C533.842 73.3795 531.3 72.7192 529.012 71.5077C528.916 71.4593 528.844 71.3751 528.81 71.2737C528.777 71.1723 528.786 71.0619 528.835 70.9669C528.883 70.8719 528.968 70.8 529.07 70.767C529.172 70.734 529.283 70.7427 529.379 70.7911C534.316 73.2826 538.953 73.2744 542.787 70.7679C542.864 70.7145 542.944 70.6654 543.027 70.621C543.124 70.5742 543.235 70.5675 543.336 70.6023C543.438 70.637 543.521 70.7104 543.568 70.8063C543.615 70.9022 543.622 71.0128 543.587 71.1137C543.552 71.2145 543.478 71.2974 543.382 71.3442C543.351 71.3607 543.299 71.3946 543.232 71.44C541.217 72.7623 538.85 73.457 536.434 73.4354V73.4354Z" fill="#0C0C0C"/>
<path opacity="0.52" d="M536.299 77.2478C535.83 77.2455 535.362 77.2032 534.9 77.1215C534.848 77.1124 534.798 77.0932 534.753 77.0648C534.708 77.0365 534.669 76.9997 534.639 76.9564C534.608 76.9132 534.587 76.8644 534.575 76.8128C534.563 76.7613 534.562 76.7079 534.571 76.6559C534.581 76.6039 534.6 76.5541 534.628 76.5095C534.657 76.4649 534.694 76.4264 534.738 76.396C534.781 76.3657 534.83 76.3441 534.882 76.3326C534.934 76.3211 534.988 76.3199 535.04 76.329C537.817 76.8111 539.238 75.6264 539.298 75.5752C539.379 75.5049 539.484 75.4694 539.591 75.4765C539.698 75.4835 539.798 75.5326 539.869 75.6128C539.94 75.693 539.975 75.7979 539.968 75.9044C539.961 76.0108 539.912 76.1101 539.831 76.1804C538.813 76.9311 537.565 77.3083 536.299 77.2478V77.2478Z" fill="#0C0C0C"/>
<path d="M523.786 56.1735C524.877 56.1735 525.762 55.2945 525.762 54.2103C525.762 53.126 524.877 52.2471 523.786 52.2471C522.694 52.2471 521.81 53.126 521.81 54.2103C521.81 55.2945 522.694 56.1735 523.786 56.1735Z" fill="#0C0C0C"/>
<path d="M543.759 56.2975C544.85 56.2975 545.735 55.4186 545.735 54.3343C545.735 53.2501 544.85 52.3711 543.759 52.3711C542.668 52.3711 541.783 53.2501 541.783 54.3343C541.783 55.4186 542.668 56.2975 543.759 56.2975Z" fill="#0C0C0C"/>
<path d="M569.27 70.3017C574.129 70.6872 578.484 65.8345 578.871 61.0057C579.258 56.177 575.533 53.2024 570.674 52.8169L567.909 55.8542L565.091 69.9714L569.27 70.3017Z" fill="#E98862"/>
<path d="M485.638 160.63C486.581 171.637 491.168 240.306 492.075 253.864H617.025C617.731 241.636 620.9 188.168 623.576 164.257C626.132 141.44 631.145 130.017 627.47 123.271C621.466 112.246 605.058 105.875 593.87 104.37C587.039 103.452 576.764 102.793 576.764 102.793C576.764 102.793 575.894 120.279 555.149 121.252C526.909 122.573 528.795 102.793 528.655 102.793C524.08 102.793 497.945 105.671 491.551 109.436C474.128 119.687 483.637 137.306 485.638 160.63Z" fill="#E74C3C"/>
<path d="M564.955 62.2142C564.955 62.2142 564.924 38.2075 557.73 36.2459C552.938 34.9398 540.695 41.0012 529.926 38.2075C525.212 36.9848 520.602 37.8574 519.99 40.0666C519.747 40.9418 517.633 27.9968 525.761 18.8206C532.232 11.5151 551.852 10.6367 560.546 13.7524C584.61 22.3788 571.605 53.9362 571.605 53.9362L569.956 62.1028L564.955 62.2142Z" fill="#0C0C0C"/>
<g opacity="0.52">
<path d="M533.877 67.6003H533.846C532.28 67.4806 529.666 67.105 529.755 65.9409C529.831 64.9766 533.297 54.7676 533.692 53.6069C533.726 53.507 533.799 53.4247 533.894 53.3779C533.989 53.3312 534.099 53.3238 534.199 53.3576C534.3 53.3913 534.382 53.4633 534.429 53.5577C534.476 53.6522 534.484 53.7613 534.45 53.8612C532.911 58.3828 530.604 65.3465 530.553 66.002C530.686 66.2893 532.285 66.6831 533.907 66.8078C534.01 66.8169 534.104 66.8647 534.172 66.9412C534.24 67.0177 534.275 67.1171 534.272 67.219C534.268 67.3208 534.225 67.4173 534.151 67.4886C534.078 67.5598 533.98 67.6004 533.877 67.602V67.6003Z" fill="#0C0C0C"/>
</g>
<path d="M529.338 45.7069C528.074 45.1879 526.695 45.0096 525.34 45.1901C524.65 45.2763 523.978 45.4658 523.345 45.7523C522.699 46.0413 522.091 46.4096 521.536 46.8487L521.492 46.8817C521.349 46.9918 521.169 47.0419 520.989 47.0213C520.81 47.0007 520.646 46.9111 520.532 46.7716C520.418 46.6322 520.364 46.454 520.38 46.2752C520.397 46.0964 520.484 45.9312 520.622 45.8151C521.236 45.2478 521.919 44.7599 522.656 44.3629C523.404 43.9569 524.209 43.6644 525.044 43.4952C525.88 43.3172 526.737 43.2539 527.591 43.307C528.469 43.3527 529.336 43.5228 530.166 43.8123C530.425 43.9048 530.636 44.095 530.753 44.3414C530.871 44.5877 530.886 44.8703 530.795 45.1275C530.704 45.3847 530.514 45.5958 530.267 45.7147C530.02 45.8336 529.736 45.8507 529.476 45.7623C529.451 45.7532 529.426 45.7441 529.403 45.7334L529.338 45.7069Z" fill="#0C0C0C"/>
<path d="M540.941 43.9766C542.588 43.4131 544.358 43.3039 546.063 43.6604C546.898 43.8294 547.703 44.1219 548.451 44.5281C549.188 44.925 549.872 45.4133 550.486 45.9811C550.621 46.0977 550.706 46.2622 550.722 46.4398C550.738 46.6174 550.684 46.7941 550.571 46.9328C550.458 47.0714 550.295 47.161 550.117 47.1826C549.939 47.2042 549.759 47.1561 549.616 47.0486L549.571 47.0139C549.016 46.5745 548.409 46.2062 547.762 45.9175C547.129 45.6306 546.457 45.4408 545.767 45.3545C544.412 45.1739 543.033 45.3522 541.769 45.8713L541.711 45.8969C541.458 46.0093 541.171 46.0174 540.912 45.9193C540.653 45.8212 540.444 45.625 540.331 45.3739C540.218 45.1227 540.21 44.8372 540.308 44.5801C540.407 44.323 540.605 44.1155 540.857 44.003C540.885 43.9956 540.912 43.9849 540.941 43.9766Z" fill="#0C0C0C"/>
<path d="M542.626 20.0538C544.089 14.8626 542.397 9.85413 538.847 8.86714C535.297 7.88015 531.234 11.2884 529.772 16.4796C528.31 21.6708 530.002 26.6793 533.552 27.6663C537.101 28.6532 541.164 25.245 542.626 20.0538Z" fill="#0C0C0C"/>
<path d="M203.027 40.7742H10.1981C4.56584 40.7742 0 45.3105 0 50.9064V144.226C0 149.822 4.56584 154.359 10.1981 154.359H203.027C208.659 154.359 213.225 149.822 213.225 144.226V50.9064C213.225 45.3105 208.659 40.7742 203.027 40.7742Z" fill="#F4F4F4"/>
<path d="M129.817 105.271H116.206C115.377 105.271 114.706 105.938 114.706 106.761V136.734C114.706 137.556 115.377 138.224 116.206 138.224H129.817C130.645 138.224 131.316 137.556 131.316 136.734V106.761C131.316 105.938 130.645 105.271 129.817 105.271Z" fill="white"/>
<path d="M162.615 73.8159H149.005C148.176 73.8159 147.505 74.4831 147.505 75.3061V136.734C147.505 137.556 148.176 138.224 149.005 138.224H162.615C163.444 138.224 164.115 137.556 164.115 136.734V75.3061C164.115 74.4831 163.444 73.8159 162.615 73.8159Z" fill="white"/>
<path d="M195.413 97.8845H181.803C180.974 97.8845 180.303 98.5517 180.303 99.3747V136.733C180.303 137.556 180.974 138.224 181.803 138.224H195.413C196.242 138.224 196.913 137.556 196.913 136.733V99.3747C196.913 98.5517 196.242 97.8845 195.413 97.8845Z" fill="white"/>
<path d="M31.4227 105.271H17.812C16.9836 105.271 16.3121 105.938 16.3121 106.761V136.734C16.3121 137.556 16.9836 138.224 17.812 138.224H31.4227C32.2511 138.224 32.9226 137.556 32.9226 136.734V106.761C32.9226 105.938 32.2511 105.271 31.4227 105.271Z" fill="white"/>
<path d="M64.2207 73.8159H50.61C49.7816 73.8159 49.1101 74.4831 49.1101 75.3061V136.734C49.1101 137.556 49.7816 138.224 50.61 138.224H64.2207C65.0491 138.224 65.7206 137.556 65.7206 136.734V75.3061C65.7206 74.4831 65.0491 73.8159 64.2207 73.8159Z" fill="white"/>
<path d="M97.0186 97.8845H83.4079C82.5795 97.8845 81.908 98.5517 81.908 99.3747V136.733C81.908 137.556 82.5795 138.224 83.4079 138.224H97.0186C97.847 138.224 98.5185 137.556 98.5185 136.733V99.3747C98.5185 98.5517 97.847 97.8845 97.0186 97.8845Z" fill="white"/>
<path d="M458.724 0.825684H109.19C101.728 0.825684 95.6791 6.83572 95.6791 14.2495V423.131C95.6791 430.545 101.728 436.555 109.19 436.555H458.724C466.186 436.555 472.235 430.545 472.235 423.131V14.2495C472.235 6.83572 466.186 0.825684 458.724 0.825684Z" fill="white"/>
<path d="M458.724 437.38H109.19C105.388 437.376 101.742 435.873 99.0537 433.202C96.365 430.53 94.8526 426.909 94.8482 423.131V14.2494C94.8526 10.4715 96.365 6.84969 99.0537 4.17837C101.742 1.50704 105.388 0.00436996 109.19 0L458.724 0C462.527 0.00436996 466.172 1.50704 468.861 4.17837C471.549 6.84969 473.062 10.4715 473.066 14.2494V423.131C473.062 426.909 471.549 430.53 468.861 433.202C466.172 435.873 462.527 437.376 458.724 437.38V437.38ZM109.19 1.65114C105.828 1.65507 102.605 2.98365 100.228 5.34542C97.8512 7.70719 96.514 10.9093 96.5101 14.2494V423.131C96.514 426.471 97.8512 429.673 100.228 432.035C102.605 434.396 105.828 435.725 109.19 435.729H458.724C462.086 435.725 465.309 434.396 467.686 432.035C470.063 429.673 471.4 426.471 471.404 423.131V14.2494C471.4 10.9093 470.063 7.70719 467.686 5.34542C465.309 2.98365 462.086 1.65507 458.724 1.65114H109.19Z" fill="#292A2E"/>
<path d="M323.532 66.749C328.005 66.749 331.631 63.1463 331.631 58.7021C331.631 54.258 328.005 50.6553 323.532 50.6553C319.059 50.6553 315.433 54.258 315.433 58.7021C315.433 63.1463 319.059 66.749 323.532 66.749Z" fill="#E74C3C"/>
<path d="M323.532 66.749C328.005 66.749 331.631 63.1463 331.631 58.7021C331.631 54.258 328.005 50.6553 323.532 50.6553C319.059 50.6553 315.433 54.258 315.433 58.7021C315.433 63.1463 319.059 66.749 323.532 66.749Z" fill="#E74C3C"/>
<path d="M323.532 107.767C328.005 107.767 331.631 104.164 331.631 99.7199C331.631 95.2758 328.005 91.6731 323.532 91.6731C319.059 91.6731 315.433 95.2758 315.433 99.7199C315.433 104.164 319.059 107.767 323.532 107.767Z" fill="#292A2E"/>
<path opacity="0.5" d="M323.532 148.784C328.005 148.784 331.631 145.182 331.631 140.738C331.631 136.293 328.005 132.691 323.532 132.691C319.059 132.691 315.433 136.293 315.433 140.738C315.433 145.182 319.059 148.784 323.532 148.784Z" fill="#E74C3C"/>
<path opacity="0.2" d="M323.532 189.802C328.005 189.802 331.631 186.199 331.631 181.755C331.631 177.311 328.005 173.708 323.532 173.708C319.059 173.708 315.433 177.311 315.433 181.755C315.433 186.199 319.059 189.802 323.532 189.802Z" fill="#E74C3C"/>
<path d="M162.767 120.229C162.769 130.037 165.833 139.603 171.535 147.61C177.237 155.616 185.297 161.67 194.606 164.936L181.513 196.651C163.508 189.909 148.454 177.105 138.975 160.468C129.495 143.832 126.191 124.419 129.637 105.611C133.084 86.8025 143.063 69.792 157.836 57.5428C172.609 45.2936 191.239 38.5823 210.481 38.5781V72.8236C197.826 72.8236 185.69 77.8181 176.742 86.7082C167.794 95.5984 162.767 107.656 162.767 120.229Z" fill="#292A2E"/>
<path d="M292.663 120.229H258.195C258.195 107.656 253.168 95.5984 244.219 86.7082C235.271 77.8181 223.135 72.8236 210.481 72.8236V38.5781C232.276 38.5794 253.179 47.1823 268.591 62.4944C284.002 77.8066 292.661 98.574 292.663 120.229V120.229Z" fill="#E74C3C"/>
<path opacity="0.5" d="M292.663 120.229C292.661 138.73 286.338 156.682 274.728 171.147C263.119 185.612 246.911 195.733 228.757 199.853L222.917 166.005C233.043 163.287 241.985 157.33 248.362 149.057C254.739 140.783 258.196 130.653 258.198 120.232L292.663 120.229Z" fill="#E74C3C"/>
<path opacity="0.2" d="M228.757 199.853C213.034 203.392 196.612 202.28 181.517 196.654L194.608 164.936C203.722 168.113 213.588 168.485 222.917 166.002L228.757 199.853Z" fill="#E74C3C"/>
<path d="M436.199 59.286H342.386C342.23 59.286 342.081 59.2245 341.971 59.1151C341.861 59.0056 341.799 58.8571 341.799 58.7023C341.799 58.5475 341.861 58.3991 341.971 58.2896C342.081 58.1801 342.23 58.1187 342.386 58.1187H436.199C436.355 58.1187 436.504 58.1801 436.615 58.2896C436.725 58.3991 436.787 58.5475 436.787 58.7023C436.787 58.8571 436.725 59.0056 436.615 59.1151C436.504 59.2245 436.355 59.286 436.199 59.286V59.286Z" fill="#E74C3C"/>
<path d="M436.199 100.307H342.386C342.23 100.307 342.081 100.245 341.971 100.136C341.861 100.026 341.799 99.8779 341.799 99.7231C341.799 99.5683 341.861 99.4198 341.971 99.3104C342.081 99.2009 342.23 99.1394 342.386 99.1394H436.199C436.355 99.1394 436.504 99.2009 436.615 99.3104C436.725 99.4198 436.787 99.5683 436.787 99.7231C436.787 99.8779 436.725 100.026 436.615 100.136C436.504 100.245 436.355 100.307 436.199 100.307V100.307Z" fill="#292A2E"/>
<g opacity="0.5">
<path d="M436.199 141.321H342.386C342.234 141.316 342.091 141.252 341.985 141.143C341.88 141.034 341.821 140.889 341.821 140.738C341.821 140.587 341.88 140.442 341.985 140.333C342.091 140.224 342.234 140.16 342.386 140.155H436.199C436.278 140.152 436.357 140.165 436.431 140.193C436.504 140.221 436.572 140.263 436.629 140.318C436.686 140.372 436.731 140.437 436.762 140.51C436.793 140.582 436.809 140.659 436.809 140.738C436.809 140.816 436.793 140.894 436.762 140.966C436.731 141.039 436.686 141.104 436.629 141.158C436.572 141.213 436.504 141.255 436.431 141.283C436.357 141.311 436.278 141.324 436.199 141.321V141.321Z" fill="#E74C3C"/>
</g>
<g opacity="0.2">
<path d="M436.199 182.339H342.386C342.234 182.333 342.091 182.269 341.985 182.16C341.88 182.052 341.821 181.907 341.821 181.756C341.821 181.605 341.88 181.459 341.985 181.351C342.091 181.242 342.234 181.178 342.386 181.172H436.199C436.278 181.169 436.357 181.182 436.431 181.21C436.504 181.238 436.572 181.281 436.629 181.335C436.686 181.39 436.731 181.455 436.762 181.527C436.793 181.599 436.809 181.677 436.809 181.756C436.809 181.834 436.793 181.912 436.762 181.984C436.731 182.056 436.686 182.122 436.629 182.176C436.572 182.23 436.504 182.273 436.431 182.301C436.357 182.329 436.278 182.342 436.199 182.339Z" fill="#E74C3C"/>
</g>
<g opacity="0.1">
<path d="M436.603 405.265H131.311C128.657 405.262 126.112 404.213 124.236 402.349C122.359 400.484 121.303 397.955 121.3 395.318V241.645C121.303 239.008 122.359 236.48 124.236 234.615C126.113 232.75 128.657 231.701 131.311 231.698H436.603C439.257 231.701 441.802 232.75 443.679 234.615C445.556 236.479 446.611 239.008 446.614 241.645V395.318C446.611 397.955 445.556 400.484 443.679 402.349C441.802 404.213 439.257 405.262 436.603 405.265Z" fill="#E74C3C"/>
</g>
<path opacity="0.5" d="M162.916 266.558H156.972C156.078 266.558 155.353 267.278 155.353 268.167V380.974C155.353 381.863 156.078 382.583 156.972 382.583H162.916C163.811 382.583 164.536 381.863 164.536 380.974V268.167C164.536 267.278 163.811 266.558 162.916 266.558Z" fill="#E74C3C"/>
<path d="M153.733 303H147.789C146.895 303 146.169 303.72 146.169 304.609V380.975C146.169 381.863 146.895 382.584 147.789 382.584H153.733C154.627 382.584 155.352 381.863 155.352 380.975V304.609C155.352 303.72 154.627 303 153.733 303Z" fill="#E74C3C"/>
<path opacity="0.5" d="M236.404 367.903H230.461C229.566 367.903 228.841 368.623 228.841 369.512V380.975C228.841 381.863 229.566 382.584 230.461 382.584H236.404C237.299 382.584 238.024 381.863 238.024 380.975V369.512C238.024 368.623 237.299 367.903 236.404 367.903Z" fill="#E74C3C"/>
<path d="M227.222 296.447H221.278C220.384 296.447 219.658 297.167 219.658 298.056V380.974C219.658 381.863 220.384 382.583 221.278 382.583H227.222C228.116 382.583 228.841 381.863 228.841 380.974V298.056C228.841 297.167 228.116 296.447 227.222 296.447Z" fill="#E74C3C"/>
<path opacity="0.5" d="M199.66 313.134H193.716C192.822 313.134 192.097 313.855 192.097 314.743V380.974C192.097 381.863 192.822 382.583 193.716 382.583H199.66C200.555 382.583 201.28 381.863 201.28 380.974V314.743C201.28 313.855 200.555 313.134 199.66 313.134Z" fill="#E74C3C"/>
<path d="M190.477 337.13H184.533C183.639 337.13 182.913 337.851 182.913 338.739V380.974C182.913 381.863 183.639 382.583 184.533 382.583H190.477C191.371 382.583 192.096 381.863 192.096 380.974V338.739C192.096 337.851 191.371 337.13 190.477 337.13Z" fill="#E74C3C"/>
<path opacity="0.5" d="M346.637 288.998H340.693C339.798 288.998 339.073 289.718 339.073 290.607V380.975C339.073 381.863 339.798 382.584 340.693 382.584H346.637C347.531 382.584 348.256 381.863 348.256 380.975V290.607C348.256 289.718 347.531 288.998 346.637 288.998Z" fill="#E74C3C"/>
<path d="M337.454 323.453H331.51C330.616 323.453 329.891 324.173 329.891 325.062V380.975C329.891 381.863 330.616 382.584 331.51 382.584H337.454C338.348 382.584 339.073 381.863 339.073 380.975V325.062C339.073 324.173 338.348 323.453 337.454 323.453Z" fill="#E74C3C"/>
<path opacity="0.5" d="M273.148 303.595H267.205C266.31 303.595 265.585 304.316 265.585 305.205V380.974C265.585 381.862 266.31 382.583 267.205 382.583H273.148C274.043 382.583 274.768 381.862 274.768 380.974V305.205C274.768 304.316 274.043 303.595 273.148 303.595Z" fill="#E74C3C"/>
<path d="M263.966 312.538H258.022C257.128 312.538 256.402 313.258 256.402 314.147V380.974C256.402 381.862 257.128 382.583 258.022 382.583H263.966C264.86 382.583 265.585 381.862 265.585 380.974V314.147C265.585 313.258 264.86 312.538 263.966 312.538Z" fill="#E74C3C"/>
<path opacity="0.5" d="M309.893 266.558H303.949C303.054 266.558 302.329 267.278 302.329 268.167V380.974C302.329 381.863 303.054 382.583 303.949 382.583H309.893C310.787 382.583 311.512 381.863 311.512 380.974V268.167C311.512 267.278 310.787 266.558 309.893 266.558Z" fill="#E74C3C"/>
<path d="M300.71 272.147H294.766C293.872 272.147 293.147 272.868 293.147 273.756V380.974C293.147 381.863 293.872 382.583 294.766 382.583H300.71C301.604 382.583 302.329 381.863 302.329 380.974V273.756C302.329 272.868 301.604 272.147 300.71 272.147Z" fill="#E74C3C"/>
<path opacity="0.5" d="M383.381 266.558H377.437C376.542 266.558 375.817 267.278 375.817 268.167V380.974C375.817 381.863 376.542 382.583 377.437 382.583H383.381C384.275 382.583 385 381.863 385 380.974V268.167C385 267.278 384.275 266.558 383.381 266.558Z" fill="#E74C3C"/>
<path d="M374.198 303H368.254C367.36 303 366.635 303.72 366.635 304.609V380.975C366.635 381.863 367.36 382.584 368.254 382.584H374.198C375.092 382.584 375.817 381.863 375.817 380.975V304.609C375.817 303.72 375.092 303 374.198 303Z" fill="#E74C3C"/>
<path opacity="0.5" d="M420.125 313.134H414.181C413.287 313.134 412.562 313.855 412.562 314.743V380.974C412.562 381.863 413.287 382.583 414.181 382.583H420.125C421.019 382.583 421.744 381.863 421.744 380.974V314.743C421.744 313.855 421.019 313.134 420.125 313.134Z" fill="#E74C3C"/>
<path d="M410.942 337.13H404.998C404.104 337.13 403.379 337.851 403.379 338.739V380.974C403.379 381.863 404.104 382.583 404.998 382.583H410.942C411.836 382.583 412.561 381.863 412.561 380.974V338.739C412.561 337.851 411.836 337.13 410.942 337.13Z" fill="#E74C3C"/>
<path d="M458.211 244.495C454.514 244.489 450.883 243.523 447.678 241.693C444.474 239.862 441.807 237.23 439.942 234.059C438.077 230.888 437.08 227.287 437.048 223.615C437.017 219.942 437.953 216.325 439.764 213.123L490.269 123.87C491.626 121.448 493.451 119.315 495.639 117.595C497.828 115.874 500.337 114.601 503.022 113.846C505.708 113.092 508.517 112.873 511.288 113.2C514.059 113.527 516.737 114.395 519.17 115.754C521.602 117.113 523.741 118.936 525.462 121.118C527.184 123.3 528.455 125.799 529.201 128.47C529.948 131.142 530.157 133.933 529.815 136.685C529.473 139.437 528.587 142.094 527.208 144.505L476.703 233.757C474.859 237.018 472.174 239.732 468.924 241.619C465.673 243.507 461.975 244.499 458.211 244.495Z" fill="#E74C3C"/>
<path d="M489.232 211.61L488.477 196.39" stroke="#0C0C0C" stroke-width="0.75" stroke-linecap="round" stroke-linejoin="round"/>
<path d="M550.47 171.275L537.402 156.077C537.121 155.751 536.776 155.484 536.388 155.295C535.999 155.105 535.577 154.996 535.145 154.973C534.713 154.951 534.281 155.017 533.875 155.166C533.47 155.315 533.099 155.545 532.786 155.841C532.199 156.436 531.862 157.229 531.842 158.061C531.822 158.893 532.121 159.701 532.678 160.323L535.47 163.57L549.441 174.113L550.47 171.275Z" fill="#E98862"/>
<path d="M529.972 175.282L488.709 177.836C487.052 177.939 485.416 177.428 484.117 176.402C482.818 175.377 481.947 173.909 481.673 172.283L471.478 111.782C471.323 110.861 471.364 109.918 471.6 109.014C471.835 108.11 472.258 107.265 472.843 106.534C473.427 105.803 474.16 105.202 474.993 104.77C475.826 104.338 476.741 104.085 477.679 104.027L518.943 101.473C520.599 101.37 522.235 101.881 523.535 102.907C524.834 103.933 525.705 105.401 525.979 107.027L536.171 167.527C536.326 168.447 536.285 169.39 536.05 170.294C535.815 171.198 535.392 172.043 534.807 172.774C534.223 173.505 533.491 174.106 532.658 174.538C531.825 174.97 530.91 175.223 529.972 175.282Z" fill="#292A2E"/>
<path d="M535.47 163.57L521.925 157.341C520.43 156.622 518.135 156.69 517.434 158.408C517.121 159.051 517.037 159.781 517.196 160.478C517.354 161.175 517.746 161.798 518.307 162.245C518.295 162.258 518.286 162.272 518.278 162.287C518.274 162.299 518.271 162.311 518.269 162.324L515.965 161.215C515.541 161.011 515.076 160.903 514.604 160.899C514.133 160.895 513.666 160.996 513.238 161.193C512.81 161.389 512.432 161.678 512.13 162.038C511.828 162.398 511.611 162.82 511.493 163.274C511.32 164.001 511.405 164.765 511.734 165.436C512.062 166.108 512.615 166.646 513.297 166.959L514.278 167.432C514.277 167.467 514.283 167.502 514.295 167.536C513.565 167.371 512.801 167.466 512.135 167.806C511.47 168.146 510.946 168.707 510.656 169.392C510.359 170.17 510.371 171.031 510.688 171.801C511.006 172.571 511.606 173.193 512.367 173.54L514.777 174.696C514.731 174.703 514.687 174.722 514.65 174.75C514.612 174.777 514.582 174.813 514.561 174.855C514.537 174.909 514.531 174.968 514.542 175.025C513.864 175.055 513.214 175.301 512.687 175.725C512.159 176.149 511.783 176.73 511.612 177.383C511.439 178.11 511.524 178.874 511.852 179.546C512.181 180.217 512.733 180.756 513.416 181.069L533.961 190.955C536.835 192.337 540.059 192.835 543.221 192.386C546.382 191.936 549.336 190.558 551.704 188.429L559.327 181.577L535.47 163.57Z" fill="#E98862"/>
<g opacity="0.2">
<path d="M531.681 168.48C531.647 168.548 531.588 168.601 531.515 168.626C531.443 168.651 531.364 168.647 531.294 168.615L518.415 162.671C518.38 162.655 518.348 162.632 518.322 162.604C518.296 162.575 518.276 162.542 518.263 162.506C518.25 162.47 518.244 162.432 518.246 162.393C518.247 162.355 518.257 162.318 518.273 162.283C518.289 162.248 518.312 162.217 518.341 162.191C518.369 162.165 518.403 162.145 518.439 162.132C518.475 162.119 518.514 162.113 518.553 162.115C518.591 162.117 518.629 162.126 518.664 162.142L531.543 168.082C531.614 168.115 531.669 168.174 531.696 168.247C531.723 168.319 531.719 168.4 531.686 168.47L531.681 168.48Z" fill="#0C0C0C"/>
</g>
<g opacity="0.2">
<path d="M529.201 174.195C529.167 174.264 529.108 174.316 529.035 174.342C528.963 174.367 528.883 174.364 528.814 174.332L514.445 167.702C514.375 167.669 514.32 167.61 514.293 167.538C514.266 167.465 514.27 167.385 514.302 167.314C514.337 167.246 514.397 167.193 514.469 167.167C514.542 167.141 514.622 167.142 514.693 167.172L529.061 173.802C529.132 173.834 529.187 173.894 529.213 173.966C529.24 174.039 529.237 174.119 529.204 174.19L529.201 174.195Z" fill="#0C0C0C"/>
</g>
<g opacity="0.2">
<path d="M526.551 180.398C526.517 180.466 526.458 180.519 526.385 180.544C526.313 180.57 526.234 180.566 526.164 180.534L514.702 175.245C514.667 175.229 514.636 175.206 514.61 175.178C514.584 175.15 514.563 175.116 514.55 175.08C514.537 175.044 514.531 175.006 514.533 174.968C514.535 174.929 514.544 174.892 514.56 174.857C514.577 174.822 514.6 174.791 514.628 174.765C514.657 174.739 514.69 174.719 514.726 174.706C514.763 174.693 514.801 174.687 514.84 174.689C514.878 174.691 514.916 174.7 514.951 174.716L526.413 180.004C526.484 180.037 526.538 180.096 526.565 180.169C526.591 180.242 526.588 180.322 526.555 180.392L526.551 180.398Z" fill="#0C0C0C"/>
</g>
<path d="M534.638 196.816L623.762 240.251C627.535 241.978 631.723 242.609 635.842 242.072C639.961 241.534 643.843 239.851 647.04 237.216C650.237 234.58 652.619 231.1 653.911 227.178C655.203 223.255 655.351 219.049 654.34 215.046L630.542 130.037C629.121 124.408 625.506 119.569 620.494 116.587C615.482 113.604 609.483 112.722 603.817 114.134C592.017 117.076 585.681 128.963 588.642 140.687L607.313 186.651L550.205 162.861L534.638 196.816Z" fill="#E74C3C"/>
<path d="M617.898 237.867C617.871 237.862 617.844 237.853 617.82 237.841L534.51 197.079C534.441 197.046 534.388 196.987 534.362 196.915C534.336 196.844 534.339 196.765 534.37 196.696L549.935 162.741C549.967 162.671 550.024 162.617 550.095 162.589C550.167 162.561 550.246 162.562 550.317 162.592L606.031 185.32L595.005 152.325C594.994 152.288 594.991 152.249 594.995 152.211C595 152.173 595.012 152.136 595.031 152.103C595.049 152.069 595.075 152.04 595.105 152.016C595.135 151.992 595.17 151.975 595.207 151.964C595.244 151.954 595.283 151.951 595.321 151.955C595.359 151.96 595.397 151.971 595.43 151.99C595.464 152.009 595.494 152.034 595.517 152.064C595.541 152.094 595.559 152.128 595.57 152.165L606.762 185.745C606.778 185.798 606.777 185.854 606.762 185.907C606.746 185.96 606.716 186.008 606.674 186.044C606.633 186.081 606.582 186.105 606.527 186.114C606.472 186.123 606.416 186.116 606.365 186.095L550.352 163.24L535.024 196.676L618.076 237.314C618.139 237.345 618.189 237.397 618.217 237.462C618.244 237.526 618.248 237.599 618.226 237.665C618.205 237.732 618.16 237.789 618.099 237.826C618.039 237.862 617.967 237.876 617.898 237.864V237.867Z" fill="#0C0C0C"/>
<path d="M616.473 190.571C616.449 190.567 616.425 190.56 616.403 190.551L606.362 186.093C606.327 186.077 606.295 186.055 606.269 186.027C606.242 185.999 606.221 185.966 606.207 185.931C606.194 185.895 606.187 185.857 606.188 185.819C606.189 185.78 606.198 185.743 606.214 185.708C606.229 185.673 606.252 185.641 606.28 185.615C606.308 185.588 606.341 185.568 606.377 185.554C606.413 185.54 606.451 185.534 606.49 185.535C606.528 185.536 606.566 185.545 606.601 185.56L616.643 190.018C616.707 190.048 616.759 190.099 616.788 190.163C616.817 190.227 616.822 190.299 616.802 190.367C616.782 190.434 616.738 190.492 616.678 190.53C616.618 190.567 616.547 190.582 616.477 190.571H616.473Z" fill="#0C0C0C"/>
<path d="M502.953 131.012C502.526 130.479 501.936 130.098 501.272 129.926C500.608 129.754 499.906 129.8 499.271 130.057C499.266 130.018 499.252 129.98 499.23 129.948C499.207 129.915 499.177 129.889 499.142 129.87C499.107 129.852 499.068 129.842 499.028 129.842C498.988 129.842 498.949 129.852 498.914 129.871L500.647 127.79C501.179 127.175 501.464 126.386 501.444 125.575C501.424 124.764 501.102 123.989 500.54 123.401C499.995 122.864 499.272 122.542 498.506 122.493C497.74 122.445 496.982 122.673 496.372 123.136C496.372 123.104 496.342 123.081 496.329 123.053L497.038 122.202C497.524 121.639 497.802 120.927 497.823 120.185C497.845 119.444 497.61 118.717 497.157 118.127C496.861 117.758 496.487 117.46 496.061 117.253C495.635 117.047 495.168 116.937 494.694 116.933C494.22 116.928 493.751 117.029 493.321 117.227C492.891 117.425 492.511 117.716 492.209 118.079L490.572 120.044C490.562 120.034 490.564 120.018 490.553 120.009C490.543 120 490.52 120.002 490.505 119.993C490.831 119.354 490.929 118.623 490.782 117.922C490.636 117.22 490.253 116.589 489.698 116.132C488.341 114.858 486.225 115.745 485.167 117.017L475.164 128.81L475.452 128.276L476.638 124.155C476.877 123.38 476.818 122.543 476.473 121.808C476.127 121.073 475.519 120.492 474.767 120.177C474.355 120.019 473.914 119.948 473.472 119.969C473.03 119.99 472.598 120.102 472.202 120.298C471.807 120.494 471.456 120.769 471.174 121.107C470.891 121.445 470.683 121.837 470.561 122.26L465.033 141.479L463.691 146.146C463.047 148.384 463.307 150.784 464.416 152.835C465.524 154.886 467.394 156.427 469.628 157.13L471.089 157.59C474.133 158.548 477.396 158.581 480.459 157.685C483.522 156.789 486.247 155.004 488.282 152.56L502.835 135.086C503.321 134.523 503.599 133.811 503.62 133.07C503.642 132.328 503.406 131.601 502.953 131.012Z" fill="#E98862"/>
<g opacity="0.2">
<path d="M480.952 131.177C481.011 131.225 481.087 131.248 481.164 131.241C481.24 131.234 481.311 131.198 481.361 131.14L490.584 120.42C490.612 120.392 490.633 120.358 490.647 120.32C490.66 120.283 490.667 120.244 490.664 120.204C490.662 120.165 490.652 120.126 490.635 120.09C490.617 120.055 490.592 120.023 490.562 119.997C490.532 119.972 490.497 119.952 490.458 119.94C490.42 119.928 490.38 119.924 490.341 119.929C490.301 119.933 490.262 119.945 490.228 119.964C490.193 119.983 490.162 120.009 490.138 120.041L480.914 130.761C480.889 130.79 480.87 130.824 480.858 130.86C480.846 130.897 480.841 130.935 480.844 130.974C480.847 131.012 480.858 131.05 480.876 131.084C480.893 131.118 480.917 131.149 480.947 131.173L480.952 131.177Z" fill="#0C0C0C"/>
</g>
<g opacity="0.2">
<path d="M485.6 135.349C485.66 135.397 485.736 135.42 485.812 135.414C485.888 135.407 485.959 135.371 486.009 135.313L496.304 123.349C496.329 123.32 496.349 123.286 496.361 123.25C496.373 123.213 496.377 123.175 496.374 123.136C496.371 123.098 496.361 123.061 496.343 123.026C496.326 122.992 496.301 122.962 496.272 122.937C496.211 122.889 496.135 122.865 496.058 122.871C495.981 122.877 495.909 122.912 495.856 122.969L485.562 134.932C485.537 134.961 485.518 134.995 485.506 135.032C485.493 135.068 485.489 135.107 485.492 135.145C485.495 135.184 485.505 135.221 485.523 135.255C485.541 135.29 485.565 135.32 485.594 135.345L485.6 135.349Z" fill="#0C0C0C"/>
</g>
<g opacity="0.2">
<path d="M490.605 139.897C490.664 139.945 490.74 139.968 490.817 139.962C490.893 139.955 490.964 139.919 491.014 139.861L499.226 130.318C499.253 130.289 499.275 130.255 499.288 130.218C499.302 130.181 499.308 130.141 499.306 130.102C499.304 130.062 499.294 130.024 499.276 129.988C499.259 129.952 499.234 129.921 499.204 129.895C499.174 129.869 499.138 129.85 499.1 129.838C499.062 129.826 499.022 129.822 498.982 129.826C498.943 129.83 498.904 129.842 498.869 129.862C498.835 129.881 498.804 129.907 498.78 129.938L490.567 139.482C490.541 139.511 490.522 139.545 490.51 139.582C490.498 139.618 490.494 139.657 490.497 139.695C490.5 139.734 490.51 139.771 490.528 139.805C490.546 139.84 490.57 139.87 490.6 139.895L490.605 139.897Z" fill="#0C0C0C"/>
</g>
<path d="M496.373 151.953L479.975 225.216C479.043 230.946 475.859 236.073 471.121 239.47C466.384 242.867 460.483 244.255 454.716 243.33C448.948 242.404 443.788 239.239 440.368 234.533C436.949 229.826 435.552 223.963 436.484 218.233L458.998 139.961" fill="#E74C3C"/>
<path d="M481.251 211.61L490.497 177.864" stroke="#0C0C0C" stroke-width="0.75" stroke-linecap="round" stroke-linejoin="round"/>
<path d="M637.476 640H59.0364C58.8161 640 58.6047 639.913 58.4489 639.758C58.2931 639.603 58.2055 639.393 58.2055 639.174C58.2055 638.955 58.2931 638.746 58.4489 638.591C58.6047 638.436 58.8161 638.349 59.0364 638.349H637.476C637.697 638.349 637.908 638.436 638.064 638.591C638.22 638.746 638.307 638.955 638.307 639.174C638.307 639.393 638.22 639.603 638.064 639.758C637.908 639.913 637.697 640 637.476 640Z" fill="#292A2E"/>
</g>
<defs>
<clipPath id="clip0_215_82">
<rect width="655" height="640" fill="white"/>
</clipPath>
</defs>
</svg>
